<?xml version="1.0" encoding="utf-8"?>
<!-- Generator: Adobe Illustrator 25.3.0, SVG Export Plug-In . SVG Version: 6.00 Build 0)  -->
<svg version="1.1" id="Layer_3" xmlns="http://www.w3.org/2000/svg" xmlns:xlink="http://www.w3.org/1999/xlink" x="0px" y="0px"
	 viewBox="0 0 308.9 88.7" style="enable-background:new 0 0 308.9 88.7;" xml:space="preserve">
<style type="text/css">
	.st0{fill:#293041;}
	.st1{fill:#00A1EF;}
	.st2{fill:#FFE001;}
</style>
<g>
	<path class="st0" d="M291,88.7h-273C8,88.7,0,80.7,0,70.8V17.9C0,8,8,0,17.9,0h273c9.9,0,17.9,8,17.9,17.9v52.8
		C308.9,80.7,300.9,88.7,291,88.7z"/>
	<g>
		<g>
			<path class="st1" d="M37.9,36.5c0.9,0.6,2.4,1.2,4.3,1.9c2.1,0.7,3.9,1.5,5.3,2.2c1.4,0.7,2.6,1.8,3.6,3.2c1,1.4,1.5,3.2,1.5,5.5
				c0,2.2-0.6,4.1-1.8,5.7c-1.2,1.6-2.7,2.8-4.6,3.6c-1.9,0.8-3.9,1.2-5.9,1.2c-2.4,0-4.7-0.5-6.9-1.6c-2.2-1.1-3.9-2.4-5.1-3.9
				c-0.1-0.3-0.2-0.4-0.2-0.5c0-0.1,0.1-0.3,0.2-0.5l3.4-3.8c0.2-0.2,0.4-0.3,0.6-0.3c0.2,0,0.4,0.1,0.5,0.2
				c1.3,1.1,2.6,1.9,3.8,2.4c1.2,0.5,2.5,0.8,3.9,0.8c1.3,0,2.3-0.3,3.2-0.9c0.9-0.6,1.3-1.5,1.3-2.5c0-1-0.5-1.8-1.4-2.4
				c-0.9-0.6-2.4-1.3-4.5-2.1c-2.1-0.8-3.9-1.6-5.2-2.3c-1.4-0.7-2.5-1.8-3.5-3.2c-1-1.4-1.5-3.1-1.5-5.2c0-2.1,0.5-3.8,1.5-5.4
				c1-1.5,2.4-2.7,4.1-3.5c1.7-0.8,3.5-1.2,5.5-1.2c4.1,0,7.7,1.5,10.9,4.6c0.2,0.2,0.3,0.4,0.3,0.5c0,0.2-0.1,0.3-0.2,0.5l-3.2,3.9
				c-0.2,0.3-0.4,0.4-0.6,0.4c-0.1,0-0.2-0.1-0.4-0.2c-1.3-0.9-2.5-1.6-3.4-2c-0.9-0.4-1.9-0.6-3-0.6c-1.2,0-2.1,0.3-2.8,0.8
				c-0.7,0.6-1,1.3-1,2.1C36.6,35.1,37,35.9,37.9,36.5z"/>
			<path class="st1" d="M79.5,35c0.1,0.1,0.2,0.3,0.2,0.5v22.9c0,0.2-0.1,0.4-0.2,0.5c-0.1,0.1-0.3,0.2-0.5,0.2h-5.8
				c-0.4,0-0.7-0.2-0.7-0.7l-0.2-2.6c-0.9,1.2-1.9,2.2-3.1,2.9c-1.2,0.7-2.5,1.1-4,1.1c-1.8,0-3.4-0.4-4.8-1.3
				c-1.4-0.8-2.5-2.1-3.3-3.7c-0.8-1.6-1.2-3.5-1.2-5.6V35.5c0-0.2,0.1-0.4,0.2-0.5c0.1-0.1,0.3-0.2,0.5-0.2h6
				c0.2,0,0.4,0.1,0.5,0.2c0.1,0.1,0.2,0.3,0.2,0.5v12.3c0,1.8,0.4,3.1,1.3,3.9c0.8,0.8,1.9,1.2,3,1.2c1.5,0,2.6-0.5,3.4-1.4
				c0.8-0.9,1.2-1.9,1.2-3v-13c0-0.2,0.1-0.4,0.2-0.5c0.1-0.1,0.3-0.2,0.5-0.2h6C79.2,34.8,79.4,34.9,79.5,35z"/>
			<path class="st1" d="M104.2,35.9c1.8,1.1,3.2,2.7,4.2,4.6c1,2,1.5,4.1,1.5,6.5c0,2.4-0.5,4.5-1.5,6.5c-1,2-2.4,3.5-4.2,4.6
				c-1.8,1.1-3.8,1.7-6,1.7c-2.6,0-4.8-0.9-6.6-2.7v10.8c0,0.2-0.1,0.4-0.2,0.5c-0.1,0.1-0.3,0.2-0.5,0.2h-6c-0.2,0-0.4-0.1-0.5-0.2
				c-0.1-0.1-0.2-0.3-0.2-0.5V35.5c0-0.2,0.1-0.4,0.2-0.5c0.1-0.1,0.3-0.2,0.5-0.2h5.4c0.4,0,0.7,0.2,0.7,0.7l0.1,2
				c2-2.2,4.3-3.3,7-3.3C100.4,34.2,102.4,34.8,104.2,35.9z M101.1,51.3c1-1.1,1.6-2.6,1.6-4.3c0-1.7-0.5-3.1-1.6-4.3
				c-1-1.1-2.4-1.7-4-1.7c-1.6,0-2.9,0.6-3.9,1.8c-1,1.2-1.6,2.6-1.6,4.2c0,1.7,0.5,3.1,1.6,4.3c1,1.2,2.4,1.8,3.9,1.8
				C98.8,53,100.1,52.5,101.1,51.3z"/>
			<path class="st1" d="M136.2,49c-0.2,0.5-0.7,0.7-1.4,0.7H120c0.3,1.4,1,2.4,2.1,3.1c1.1,0.7,2.5,1.1,4.2,1.1
				c0.8,0,1.6-0.1,2.4-0.3c0.7-0.2,1.5-0.6,2.4-1.1c0.2-0.1,0.3-0.2,0.5-0.2c0.2,0,0.3,0.1,0.5,0.3l2.6,2.5c0.1,0.1,0.2,0.3,0.2,0.5
				s-0.1,0.4-0.3,0.6c-1.2,1.2-2.6,2.1-4.1,2.8c-1.5,0.6-3.2,1-5,1c-2.5,0-4.7-0.6-6.7-1.7c-2-1.1-3.5-2.7-4.6-4.6
				c-1.1-1.9-1.6-4.1-1.6-6.5c0-2.4,0.5-4.5,1.6-6.5c1.1-2,2.6-3.5,4.5-4.6c1.9-1.1,4-1.7,6.3-1.7c2.3,0,4.3,0.6,6.1,1.7
				c1.8,1.1,3.1,2.6,4.1,4.5c1,1.9,1.4,3.9,1.4,6.2C136.6,47.7,136.4,48.5,136.2,49z M121.7,41.7c-0.9,0.8-1.5,1.9-1.8,3.3h10.1
				c-0.2-1.4-0.8-2.5-1.7-3.3c-0.9-0.8-2-1.1-3.2-1.1C123.7,40.5,122.6,40.9,121.7,41.7z"/>
			<path class="st1" d="M157.6,36.2c0,0.1,0,0.2-0.1,0.4l-1.6,4.3c-0.1,0.4-0.4,0.6-0.8,0.6c-0.2,0-0.3,0-0.4,0
				c-0.1,0-0.3-0.1-0.7-0.2c-0.4-0.1-0.8-0.2-1.4-0.2c-1.5,0-2.7,0.5-3.6,1.5c-0.9,1-1.3,2.3-1.3,3.8v12.2c0,0.2-0.1,0.4-0.2,0.5
				c-0.1,0.1-0.3,0.2-0.5,0.2h-6c-0.2,0-0.4-0.1-0.5-0.2c-0.1-0.1-0.2-0.3-0.2-0.5V35.5c0-0.2,0.1-0.4,0.2-0.5
				c0.1-0.1,0.3-0.2,0.5-0.2h5.7c0.4,0,0.7,0.2,0.7,0.7l0.2,2.8c0.7-1.3,1.5-2.3,2.6-3c1-0.7,2.3-1.1,3.7-1.1c0.7,0,1.3,0.1,1.9,0.3
				s1.1,0.5,1.5,0.9C157.5,35.7,157.6,35.9,157.6,36.2z"/>
			<path class="st2" d="M196.9,24.5c0.1,0.1,0.2,0.3,0.2,0.5v33.4c0,0.2-0.1,0.4-0.2,0.5c-0.1,0.1-0.3,0.2-0.5,0.2h-6.2
				c-0.2,0-0.4-0.1-0.5-0.2c-0.1-0.1-0.2-0.3-0.2-0.5V41l-7,17.6c-0.1,0.4-0.4,0.6-0.9,0.6h-5.6c-0.4,0-0.7-0.2-0.9-0.6L168,41v17.4
				c0,0.2-0.1,0.4-0.2,0.5c-0.1,0.1-0.3,0.2-0.5,0.2H161c-0.2,0-0.4-0.1-0.5-0.2c-0.1-0.1-0.2-0.3-0.2-0.5V25.1
				c0-0.2,0.1-0.4,0.2-0.5c0.1-0.1,0.3-0.2,0.5-0.2h7c0.5,0,0.8,0.2,0.9,0.5l9.8,25.4l9.7-25.4c0.1-0.3,0.4-0.5,0.9-0.5h7
				C196.6,24.3,196.7,24.4,196.9,24.5z"/>
			<path class="st2" d="M224.9,49c-0.2,0.5-0.7,0.7-1.4,0.7h-14.8c0.3,1.4,1,2.4,2.1,3.1c1.1,0.7,2.5,1.1,4.2,1.1
				c0.8,0,1.6-0.1,2.4-0.3c0.7-0.2,1.5-0.6,2.4-1.1c0.2-0.1,0.3-0.2,0.5-0.2c0.2,0,0.3,0.1,0.5,0.3l2.6,2.5c0.1,0.1,0.2,0.3,0.2,0.5
				s-0.1,0.4-0.3,0.6c-1.2,1.2-2.6,2.1-4.1,2.8c-1.5,0.6-3.2,1-5,1c-2.5,0-4.7-0.6-6.7-1.7c-2-1.1-3.5-2.7-4.6-4.6
				c-1.1-1.9-1.6-4.1-1.6-6.5c0-2.4,0.5-4.5,1.6-6.5c1.1-2,2.6-3.5,4.5-4.6c1.9-1.1,4-1.7,6.3-1.7c2.3,0,4.3,0.6,6.1,1.7
				c1.8,1.1,3.1,2.6,4.1,4.5c1,1.9,1.4,3.9,1.4,6.2C225.2,47.7,225.1,48.5,224.9,49z M210.3,41.7c-0.9,0.8-1.5,1.9-1.8,3.3h10.1
				c-0.2-1.4-0.8-2.5-1.7-3.3c-0.9-0.8-2-1.1-3.2-1.1C212.4,40.5,211.3,40.9,210.3,41.7z"/>
			<path class="st2" d="M248.4,35.5c1.3,0.8,2.4,2.1,3.2,3.7c0.8,1.6,1.2,3.5,1.2,5.6v13.7c0,0.2-0.1,0.4-0.2,0.5
				c-0.1,0.1-0.3,0.2-0.5,0.2h-6c-0.2,0-0.4-0.1-0.5-0.2c-0.1-0.1-0.2-0.3-0.2-0.5V46.3c0-1.8-0.4-3.1-1.2-3.9
				c-0.8-0.8-1.8-1.2-3-1.2c-1,0-1.9,0.3-2.6,0.8c-0.7,0.5-1.2,1.2-1.6,1.9c-0.3,0.7-0.5,1.3-0.5,1.8v12.8c0,0.2-0.1,0.4-0.2,0.5
				c-0.1,0.1-0.3,0.2-0.5,0.2h-6c-0.2,0-0.4-0.1-0.5-0.2c-0.1-0.1-0.2-0.3-0.2-0.5V35.5c0-0.2,0.1-0.4,0.2-0.5
				c0.1-0.1,0.3-0.2,0.5-0.2h5.8c0.4,0,0.7,0.2,0.7,0.7l0.2,3.1c0.8-1.4,1.9-2.4,3.1-3.2c1.3-0.8,2.7-1.2,4.4-1.2
				S247,34.7,248.4,35.5z"/>
			<path class="st2" d="M280.6,35c0.1,0.1,0.2,0.3,0.2,0.5v22.9c0,0.2-0.1,0.4-0.2,0.5c-0.1,0.1-0.3,0.2-0.5,0.2h-5.8
				c-0.4,0-0.7-0.2-0.7-0.7l-0.2-2.6c-0.9,1.2-1.9,2.2-3.1,2.9c-1.2,0.7-2.5,1.1-4,1.1c-1.8,0-3.4-0.4-4.8-1.3
				c-1.4-0.8-2.5-2.1-3.3-3.7c-0.8-1.6-1.2-3.5-1.2-5.6V35.5c0-0.2,0.1-0.4,0.2-0.5c0.1-0.1,0.3-0.2,0.5-0.2h6
				c0.2,0,0.4,0.1,0.5,0.2c0.1,0.1,0.2,0.3,0.2,0.5v12.3c0,1.8,0.4,3.1,1.3,3.9c0.8,0.8,1.9,1.2,3,1.2c1.5,0,2.6-0.5,3.4-1.4
				c0.8-0.9,1.2-1.9,1.2-3v-13c0-0.2,0.1-0.4,0.2-0.5c0.1-0.1,0.3-0.2,0.5-0.2h6C280.2,34.8,280.4,34.9,280.6,35z"/>
		</g>
	</g>
</g>
</svg>
