<?xml version="1.0" encoding="utf-8"?>
<!-- Generator: Adobe Illustrator 25.3.0, SVG Export Plug-In . SVG Version: 6.00 Build 0)  -->
<svg version="1.1" id="Layer_3" xmlns="http://www.w3.org/2000/svg" xmlns:xlink="http://www.w3.org/1999/xlink" x="0px" y="0px"
	 viewBox="0 0 221.4 55.4" style="enable-background:new 0 0 221.4 55.4;" xml:space="preserve">
<style type="text/css">
	.st0{fill:#F71F74;}
	.st1{fill:#0099DF;}
	.st2{fill:#FFC700;}
	.st3{fill:#FFFFFF;}
</style>
<g>
	<path d="M65.6,23.9c0.5,0.3,1.4,0.7,2.5,1.1c1.2,0.4,2.3,0.9,3.1,1.3c0.8,0.4,1.5,1.1,2.1,1.9s0.9,1.9,0.9,3.2s-0.3,2.4-1,3.4
		c-0.7,0.9-1.6,1.6-2.7,2.1s-2.3,0.7-3.5,0.7c-1.4,0-2.8-0.3-4-0.9c-1.3-0.6-2.3-1.4-3-2.3c-0.1-0.2-0.1-0.3-0.1-0.3
		c0-0.1,0-0.2,0.1-0.3l2-2.2c0.1-0.1,0.2-0.2,0.4-0.2c0.1,0,0.2,0,0.3,0.1c0.8,0.6,1.5,1.1,2.2,1.4c0.7,0.3,1.4,0.5,2.3,0.5
		c0.7,0,1.4-0.2,1.9-0.5c0.5-0.4,0.8-0.9,0.8-1.5s-0.3-1.1-0.8-1.4c-0.5-0.4-1.4-0.8-2.6-1.2c-1.2-0.5-2.3-0.9-3.1-1.4
		c-0.8-0.4-1.5-1.1-2.1-1.9s-0.9-1.8-0.9-3s0.3-2.3,0.9-3.1c0.6-0.9,1.4-1.6,2.4-2c1-0.5,2.1-0.7,3.2-0.7c2.4,0,4.5,0.9,6.4,2.7
		c0.1,0.1,0.2,0.2,0.2,0.3c0,0.1,0,0.2-0.1,0.3l-1.9,2.3c-0.1,0.2-0.2,0.2-0.4,0.2c-0.1,0-0.1,0-0.3-0.1c-0.8-0.5-1.4-0.9-2-1.2
		c-0.5-0.2-1.1-0.3-1.8-0.3c-0.7,0-1.2,0.2-1.6,0.5s-0.6,0.7-0.6,1.2C64.8,23.1,65.1,23.6,65.6,23.9z"/>
	<path d="M90,23c0.1,0.1,0.1,0.2,0.1,0.3v13.4c0,0.1,0,0.2-0.1,0.3s-0.2,0.1-0.3,0.1h-3.4c-0.3,0-0.4-0.1-0.4-0.4l-0.1-1.5
		c-0.5,0.7-1.1,1.3-1.8,1.7c-0.7,0.4-1.5,0.6-2.3,0.6c-1.1,0-2-0.2-2.8-0.7s-1.5-1.2-1.9-2.1c-0.5-0.9-0.7-2-0.7-3.3v-8.1
		c0-0.1,0-0.2,0.1-0.3c0.1-0.1,0.2-0.1,0.3-0.1H80c0.1,0,0.2,0,0.3,0.1c0.1,0.1,0.1,0.2,0.1,0.3v7.2c0,1.1,0.2,1.8,0.7,2.3
		s1.1,0.7,1.8,0.7c0.9,0,1.5-0.3,2-0.8s0.7-1.1,0.7-1.7v-7.6c0-0.1,0-0.2,0.1-0.3C85.8,23,85.9,23,86,23h3.5
		C89.8,22.9,89.9,23,90,23z"/>
	<path d="M104.4,23.6c1.1,0.7,1.9,1.6,2.5,2.7s0.9,2.4,0.9,3.8s-0.3,2.6-0.9,3.8c-0.6,1.1-1.4,2.1-2.5,2.7c-1.1,0.7-2.2,1-3.5,1
		c-1.5,0-2.8-0.5-3.9-1.6v6.3c0,0.1,0,0.2-0.1,0.3s-0.2,0.1-0.3,0.1h-3.5c-0.1,0-0.2,0-0.3-0.1s-0.1-0.2-0.1-0.3v-19
		c0-0.1,0-0.2,0.1-0.3c0.1-0.1,0.2-0.1,0.3-0.1h3.2c0.3,0,0.4,0.1,0.4,0.4l0.1,1.2c1.1-1.3,2.5-2,4.1-2
		C102.2,22.6,103.4,22.9,104.4,23.6z M102.6,32.6c0.6-0.7,0.9-1.5,0.9-2.5s-0.3-1.8-0.9-2.5s-1.4-1-2.3-1s-1.7,0.3-2.3,1
		c-0.6,0.7-0.9,1.5-0.9,2.5s0.3,1.8,0.9,2.5s1.4,1,2.3,1C101.3,33.6,102,33.3,102.6,32.6z"/>
	<path d="M123.2,31.2c-0.1,0.3-0.4,0.4-0.8,0.4h-8.7c0.2,0.8,0.6,1.4,1.2,1.8s1.4,0.6,2.4,0.6c0.5,0,0.9-0.1,1.4-0.2
		c0.4-0.1,0.9-0.3,1.4-0.7c0.1-0.1,0.2-0.1,0.3-0.1c0.1,0,0.2,0.1,0.3,0.2l1.5,1.5c0.1,0.1,0.1,0.2,0.1,0.3s-0.1,0.2-0.2,0.4
		c-0.7,0.7-1.5,1.2-2.4,1.6c-0.9,0.4-1.9,0.6-2.9,0.6c-1.5,0-2.8-0.3-3.9-1c-1.2-0.7-2.1-1.6-2.7-2.7c-0.6-1.1-1-2.4-1-3.8
		s0.3-2.6,0.9-3.8c0.6-1.1,1.5-2.1,2.6-2.7c1.1-0.7,2.3-1,3.7-1c1.3,0,2.5,0.3,3.6,1c1,0.7,1.8,1.5,2.4,2.6s0.8,2.3,0.8,3.6
		C123.4,30.5,123.3,31,123.2,31.2z M114.7,27c-0.5,0.4-0.9,1.1-1.1,1.9h5.9c-0.1-0.8-0.5-1.5-1-1.9s-1.2-0.7-1.9-0.7
		C115.9,26.3,115.2,26.5,114.7,27z"/>
	<path d="M135.7,23.8c0,0,0,0.1-0.1,0.2l-1,2.5c-0.1,0.2-0.2,0.4-0.5,0.4c-0.1,0-0.2,0-0.3,0c0,0-0.2-0.1-0.4-0.1
		c-0.2-0.1-0.5-0.1-0.8-0.1c-0.9,0-1.6,0.3-2.1,0.9s-0.8,1.3-0.8,2.2v7.1c0,0.1,0,0.2-0.1,0.3s-0.2,0.1-0.3,0.1H126
		c-0.1,0-0.2,0-0.3-0.1c-0.1-0.1-0.1-0.2-0.1-0.3V23.4c0-0.1,0-0.2,0.1-0.3c0.1-0.1,0.2-0.1,0.3-0.1h3.4c0.3,0,0.4,0.1,0.4,0.4
		l0.1,1.7c0.4-0.7,0.9-1.3,1.5-1.8c0.6-0.4,1.3-0.7,2.2-0.7c0.4,0,0.8,0.1,1.1,0.2c0.4,0.1,0.6,0.3,0.9,0.5
		C135.7,23.5,135.7,23.6,135.7,23.8z"/>
	<path class="st0" d="M142.3,23.9c0.5,0.3,1.4,0.7,2.5,1.1c1.2,0.4,2.3,0.9,3.1,1.3s1.5,1.1,2.1,1.9s0.9,1.9,0.9,3.2s-0.3,2.4-1,3.4
		c-0.7,0.9-1.6,1.6-2.7,2.1c-1.1,0.5-2.3,0.7-3.5,0.7c-1.4,0-2.8-0.3-4-0.9c-1.3-0.6-2.3-1.4-3-2.3c-0.1-0.2-0.1-0.3-0.1-0.3
		c0-0.1,0-0.2,0.1-0.3l2-2.2c0.1-0.1,0.2-0.2,0.4-0.2c0.1,0,0.2,0,0.3,0.1c0.8,0.6,1.5,1.1,2.2,1.4s1.4,0.5,2.3,0.5
		c0.7,0,1.4-0.2,1.9-0.5c0.5-0.4,0.8-0.9,0.8-1.5s-0.3-1.1-0.8-1.4c-0.5-0.4-1.4-0.8-2.6-1.2c-1.2-0.5-2.3-0.9-3.1-1.4
		c-0.8-0.4-1.5-1.1-2.1-1.9s-0.9-1.8-0.9-3s0.3-2.3,0.9-3.1c0.6-0.9,1.4-1.6,2.4-2c1-0.5,2.1-0.7,3.2-0.7c2.4,0,4.5,0.9,6.4,2.7
		c0.1,0.1,0.2,0.2,0.2,0.3c0,0.1,0,0.2-0.1,0.3l-1.9,2.3c-0.1,0.2-0.2,0.2-0.4,0.2c-0.1,0-0.1,0-0.3-0.1c-0.8-0.5-1.4-0.9-2-1.2
		c-0.5-0.2-1.1-0.3-1.8-0.3s-1.2,0.2-1.6,0.5c-0.4,0.3-0.6,0.7-0.6,1.2C141.5,23.1,141.7,23.6,142.3,23.9z"/>
	<path class="st0" d="M161.1,23c0.1,0.1,0.1,0.2,0.1,0.3V26c0,0.1,0,0.2-0.1,0.3c-0.1,0.1-0.2,0.1-0.3,0.1h-2v10.3
		c0,0.1,0,0.2-0.1,0.3s-0.2,0.1-0.3,0.1h-3.5c-0.1,0-0.2,0-0.3-0.1s-0.1-0.2-0.1-0.3V26.5h-2c-0.1,0-0.2,0-0.3-0.1s-0.1-0.2-0.1-0.3
		v-2.7c0-0.1,0-0.2,0.1-0.3c0.1-0.1,0.2-0.1,0.3-0.1h2v-4c0-0.1,0-0.2,0.1-0.3c0.1-0.1,0.2-0.1,0.3-0.1h3.5c0.1,0,0.2,0,0.3,0.1
		s0.1,0.2,0.1,0.3v3.9h2C160.9,22.9,161,23,161.1,23z"/>
	<path class="st0" d="M177.4,23c0.1,0.1,0.1,0.2,0.1,0.3v13.4c0,0.1,0,0.2-0.1,0.3s-0.2,0.1-0.3,0.1h-3.2c-0.3,0-0.4-0.1-0.4-0.4
		l-0.1-1.1c-1.1,1.2-2.5,1.9-4.1,1.9c-1.3,0-2.5-0.3-3.5-1c-1.1-0.7-1.9-1.6-2.5-2.7s-0.9-2.4-0.9-3.8s0.3-2.6,0.9-3.8
		c0.6-1.1,1.4-2.1,2.5-2.7c1.1-0.7,2.2-1,3.5-1c1.6,0,2.9,0.7,4.1,2l0.1-1.2c0-0.3,0.2-0.4,0.4-0.4h3.2
		C177.3,22.9,177.4,23,177.4,23z M172.2,32.6c0.6-0.7,0.9-1.5,0.9-2.5s-0.3-1.8-0.9-2.5c-0.6-0.7-1.4-1-2.3-1c-0.9,0-1.7,0.3-2.3,1
		s-0.9,1.5-0.9,2.5s0.3,1.9,0.9,2.5c0.6,0.7,1.4,1,2.3,1S171.6,33.3,172.2,32.6z"/>
	<path class="st0" d="M201.1,23.4c0.8,0.5,1.5,1.2,1.9,2.1c0.5,0.9,0.7,2,0.7,3.3v8c0,0.1,0,0.2-0.1,0.3s-0.2,0.1-0.3,0.1h-3.5
		c-0.1,0-0.2,0-0.3-0.1s-0.1-0.2-0.1-0.3v-7.2c0-1.1-0.2-1.8-0.7-2.3s-1.1-0.7-1.7-0.7c-0.6,0-1.1,0.1-1.5,0.4s-0.8,0.6-1,1
		s-0.3,0.7-0.3,1.1v7.7c0,0.1,0,0.2-0.1,0.3s-0.2,0.1-0.3,0.1h-3.5c-0.1,0-0.2,0-0.3-0.1s-0.1-0.2-0.1-0.3v-7.2
		c0-1.1-0.2-1.8-0.7-2.3s-1.1-0.7-1.7-0.7c-0.6,0-1.1,0.2-1.5,0.5s-0.7,0.7-0.9,1.1s-0.3,0.8-0.3,1v7.5c0,0.1,0,0.2-0.1,0.3
		s-0.2,0.1-0.3,0.1h-3.5c-0.1,0-0.2,0-0.3-0.1s-0.1-0.2-0.1-0.3V23.4c0-0.1,0-0.2,0.1-0.3c0.1-0.1,0.2-0.1,0.3-0.1h3.4
		c0.3,0,0.4,0.1,0.4,0.4l0.1,1.8c0.5-0.8,1.1-1.4,1.8-1.9s1.6-0.7,2.6-0.7c0.9,0,1.8,0.2,2.5,0.7c0.8,0.4,1.4,1.1,1.8,1.9
		c0.5-0.8,1.2-1.4,2.1-1.9c0.8-0.5,1.8-0.7,2.9-0.7C199.3,22.6,200.3,22.9,201.1,23.4z"/>
	<path class="st0" d="M218.1,23.6c1.1,0.7,1.9,1.6,2.5,2.7s0.9,2.4,0.9,3.8s-0.3,2.6-0.9,3.8c-0.6,1.1-1.4,2.1-2.5,2.7
		c-1.1,0.7-2.2,1-3.5,1c-1.5,0-2.8-0.5-3.9-1.6v6.3c0,0.1,0,0.2-0.1,0.3s-0.2,0.1-0.3,0.1h-3.5c-0.1,0-0.2,0-0.3-0.1
		s-0.1-0.2-0.1-0.3v-19c0-0.1,0-0.2,0.1-0.3c0.1-0.1,0.2-0.1,0.3-0.1h3.2c0.3,0,0.4,0.1,0.4,0.4l0.1,1.2c1.1-1.3,2.5-2,4.1-2
		C215.8,22.6,217,22.9,218.1,23.6z M216.3,32.6c0.6-0.7,0.9-1.5,0.9-2.5s-0.3-1.8-0.9-2.5c-0.6-0.7-1.4-1-2.3-1
		c-0.9,0-1.7,0.3-2.3,1s-0.9,1.5-0.9,2.5s0.3,1.8,0.9,2.5c0.6,0.7,1.4,1,2.3,1C214.9,33.6,215.7,33.3,216.3,32.6z"/>
</g>
<g>
	<g>
		<path class="st0" d="M42.9,55.4H12.5C5.6,55.4,0,49.8,0,42.9V12.5C0,5.6,5.6,0,12.5,0h30.4c6.9,0,12.5,5.6,12.5,12.5v30.4
			C55.4,49.8,49.8,55.4,42.9,55.4z"/>
		<g>
			<path class="st1" d="M0,31.5v11.4c0,6.9,5.6,12.5,12.5,12.5h0.2"/>
		</g>
		<g>
			<path class="st2" d="M55.4,26.7V12.5C55.4,5.6,49.8,0,42.9,0h-0.7"/>
		</g>
	</g>
	<path class="st3" d="M36.4,12.5l-8.8-5l-1,0.6l-4.3,2.4l-4.6,2.6L12.7,16l-2.6,1.6v20.3l3.1,1.8l5.1,2.9l4.7,2.7l4.3,2.5l0.2,0.1
		L39,41.4l6.3-3.6V17.6L36.4,12.5z M42.4,30.2L41.8,30L35,26.1L27.8,22l-3.1-1.8l2.2-1.2l0.8-0.5c0.5,0.3,3.9,2.3,6.8,3.9
		c2.2,1.2,4,2.3,4,2.3l1.1,0.7V21l-0.4-0.2c-0.2-0.1-3.5-2-6.5-3.7c-2.4-1.4-4.7-2.7-4.7-2.7l-2.4,1.3l-5.2,3l-2.7,1.6l3.8,2.2
		l7.3,4.1l6.7,3.9l6.3,3.6l0.9,0.6v1.6c0,0-0.7,0.4-1.6,0.9c-2.1,1.2-5.7,3.3-8.8,5c-2.2,1.2-4,2.3-4.3,2.5l-2.8-1.6l-5.1-2.9
		l-5.4-3.1l-1.2-0.8V25.4l2.4,1.3l6.7,3.8l6.2,3.5l2.5,1.4l-3,1.7c-0.1,0-0.2-0.1-0.3-0.2c-1-0.7-3.5-2-5.7-3.3
		c-2.8-1.6-5.6-3.2-5.6-3.2v4l4.8,2.7l5.4,3.1l1.4,0.8l6.3-3.6l3.8-2.2L35,33.5l-6.4-3.4l-6.8-3.9l-7.3-4L13,21.2v-1.8l0.8-0.4
		l5.2-3l4.9-2.8l3.8-2.2c0.4,0.2,0.9,0.6,2,1.1c0.8,0.5,2.1,1.2,3.8,2.2c1.9,1.1,3.9,2.3,5.6,3.2c1.5,0.8,2.6,1.5,3.2,1.9L42.4,30.2
		L42.4,30.2z"/>
</g>
</svg>
