<?xml version="1.0" encoding="utf-8"?>
<!-- Generator: Adobe Illustrator 25.3.0, SVG Export Plug-In . SVG Version: 6.00 Build 0)  -->
<svg version="1.1" id="Layer_3" xmlns="http://www.w3.org/2000/svg" xmlns:xlink="http://www.w3.org/1999/xlink" x="0px" y="0px"
	 viewBox="0 0 221.4 55.4" style="enable-background:new 0 0 221.4 55.4;" xml:space="preserve">
<style type="text/css">
	.st0{fill:#FFFFFF;}
	.st1{fill:#F71F74;}
	.st2{fill:#0099DF;}
	.st3{fill:#FFC700;}
	.st4{fill:none;stroke:#FFFFFF;stroke-width:0.96;stroke-miterlimit:10;}
</style>
<g>
	<path class="st0" d="M67.4,24.1c0.5,0.3,1.3,0.7,2.4,1.1c1.2,0.4,2.2,0.9,3,1.2c0.8,0.4,1.4,1.1,2,1.8s0.9,1.8,0.9,3.1
		s-0.3,2.3-1,3.3c-0.7,0.9-1.5,1.5-2.6,2s-2.2,0.7-3.4,0.7c-1.3,0-2.7-0.3-3.8-0.9c-1.2-0.6-2.2-1.3-2.9-2.2
		c-0.1-0.2-0.1-0.3-0.1-0.3c0-0.1,0-0.2,0.1-0.3l1.9-2.1c0.1-0.1,0.2-0.2,0.4-0.2c0.1,0,0.2,0,0.3,0.1c0.8,0.6,1.4,1.1,2.1,1.3
		c0.7,0.3,1.3,0.5,2.2,0.5c0.7,0,1.3-0.2,1.8-0.5c0.5-0.4,0.8-0.9,0.8-1.4c0-0.6-0.3-1.1-0.8-1.3c-0.5-0.4-1.3-0.8-2.5-1.2
		c-1.2-0.5-2.2-0.9-3-1.3c-0.8-0.4-1.4-1.1-2-1.8c-0.6-0.8-0.9-1.7-0.9-2.9s0.3-2.2,0.9-3c0.6-0.9,1.3-1.5,2.3-1.9
		c1-0.5,2-0.7,3.1-0.7c2.3,0,4.3,0.9,6.1,2.6c0.1,0.1,0.2,0.2,0.2,0.3c0,0.1,0,0.2-0.1,0.3l-1.8,2.2c-0.1,0.2-0.2,0.2-0.4,0.2
		c-0.1,0-0.1,0-0.3-0.1c-0.8-0.5-1.3-0.9-1.9-1.2c-0.5-0.2-1.1-0.3-1.7-0.3c-0.7,0-1.2,0.2-1.5,0.5c-0.4,0.3-0.6,0.7-0.6,1.2
		C66.6,23.3,66.9,23.8,67.4,24.1z"/>
	<path class="st0" d="M90.8,23.2c0.1,0.1,0.1,0.2,0.1,0.3v12.9c0,0.1,0,0.2-0.1,0.3c-0.1,0.1-0.2,0.1-0.3,0.1h-3.3
		c-0.3,0-0.4-0.1-0.4-0.4l-0.1-1.4c-0.5,0.7-1.1,1.2-1.7,1.6c-0.7,0.4-1.4,0.6-2.2,0.6c-1.1,0-1.9-0.2-2.7-0.7
		c-0.8-0.5-1.4-1.2-1.8-2c-0.5-0.9-0.7-1.9-0.7-3.2v-7.8c0-0.1,0-0.2,0.1-0.3c0.1-0.1,0.2-0.1,0.3-0.1h3.2c0.1,0,0.2,0,0.3,0.1
		c0.1,0.1,0.1,0.2,0.1,0.3v6.9c0,1.1,0.2,1.7,0.7,2.2c0.5,0.5,1.1,0.7,1.7,0.7c0.9,0,1.4-0.3,1.9-0.8c0.5-0.5,0.7-1.1,0.7-1.6v-7.3
		c0-0.1,0-0.2,0.1-0.3c0.1-0.1,0.2-0.1,0.3-0.1h3.4C90.6,23.1,90.7,23.2,90.8,23.2z"/>
	<path class="st0" d="M104.7,23.8c1.1,0.7,1.8,1.5,2.4,2.6s0.9,2.3,0.9,3.6s-0.3,2.5-0.9,3.6c-0.6,1.1-1.3,2-2.4,2.6
		c-1.1,0.7-2.1,1-3.4,1c-1.4,0-2.7-0.5-3.7-1.5v6c0,0.1,0,0.2-0.1,0.3c-0.1,0.1-0.2,0.1-0.3,0.1h-3.4c-0.1,0-0.2,0-0.3-0.1
		c-0.1-0.1-0.1-0.2-0.1-0.3V23.5c0-0.1,0-0.2,0.1-0.3c0.1-0.1,0.2-0.1,0.3-0.1h3.1c0.3,0,0.4,0.1,0.4,0.4l0.1,1.2
		c1.1-1.2,2.4-1.9,3.9-1.9C102.5,22.8,103.7,23.1,104.7,23.8z M102.9,32.4c0.6-0.7,0.9-1.4,0.9-2.4c0-1-0.3-1.7-0.9-2.4
		c-0.6-0.7-1.3-1-2.2-1c-0.9,0-1.6,0.3-2.2,1S97.6,29,97.6,30c0,1,0.3,1.7,0.9,2.4c0.6,0.7,1.3,1,2.2,1
		C101.7,33.4,102.3,33.1,102.9,32.4z"/>
	<path class="st0" d="M122.7,31.1c-0.1,0.3-0.4,0.4-0.8,0.4h-8.4c0.2,0.8,0.6,1.3,1.2,1.7s1.3,0.6,2.3,0.6c0.5,0,0.9-0.1,1.3-0.2
		c0.4-0.1,0.9-0.3,1.3-0.7c0.1-0.1,0.2-0.1,0.3-0.1s0.2,0.1,0.3,0.2l1.4,1.4c0.1,0.1,0.1,0.2,0.1,0.3s-0.1,0.2-0.2,0.4
		c-0.7,0.7-1.4,1.2-2.3,1.5c-0.9,0.4-1.8,0.6-2.8,0.6c-1.4,0-2.7-0.3-3.7-1c-1.2-0.7-2-1.5-2.6-2.6c-0.6-1.1-1-2.3-1-3.6
		c0-1.3,0.3-2.5,0.9-3.6c0.6-1.1,1.4-2,2.5-2.6c1.1-0.7,2.2-1,3.6-1c1.2,0,2.4,0.3,3.5,1c1,0.7,1.7,1.4,2.3,2.5
		c0.6,1.1,0.8,2.2,0.8,3.5C122.9,30.4,122.8,30.9,122.7,31.1z M114.5,27c-0.5,0.4-0.9,1.1-1.1,1.8h5.7c-0.1-0.8-0.5-1.4-1-1.8
		c-0.5-0.4-1.2-0.7-1.8-0.7C115.7,26.4,115,26.5,114.5,27z"/>
	<path class="st0" d="M134.7,24c0,0,0,0.1-0.1,0.2l-1,2.4c-0.1,0.2-0.2,0.4-0.5,0.4c-0.1,0-0.2,0-0.3,0c0,0-0.2-0.1-0.4-0.1
		c-0.2-0.1-0.5-0.1-0.8-0.1c-0.9,0-1.5,0.3-2,0.9c-0.5,0.6-0.8,1.2-0.8,2.1v6.8c0,0.1,0,0.2-0.1,0.3c-0.1,0.1-0.2,0.1-0.3,0.1h-3.2
		c-0.1,0-0.2,0-0.3-0.1c-0.1-0.1-0.1-0.2-0.1-0.3v-13c0-0.1,0-0.2,0.1-0.3c0.1-0.1,0.2-0.1,0.3-0.1h3.3c0.3,0,0.4,0.1,0.4,0.4
		l0.1,1.6c0.4-0.7,0.9-1.2,1.4-1.7c0.6-0.4,1.2-0.7,2.1-0.7c0.4,0,0.8,0.1,1.1,0.2c0.4,0.1,0.6,0.3,0.9,0.5
		C134.7,23.7,134.7,23.8,134.7,24z"/>
	<path class="st0" d="M141,24.1c0.5,0.3,1.3,0.7,2.4,1.1c1.2,0.4,2.2,0.9,3,1.2c0.8,0.4,1.4,1.1,2,1.8c0.6,0.8,0.9,1.8,0.9,3.1
		s-0.3,2.3-1,3.3c-0.7,0.9-1.5,1.5-2.6,2s-2.2,0.7-3.4,0.7c-1.3,0-2.7-0.3-3.8-0.9c-1.2-0.6-2.2-1.3-2.9-2.2
		c-0.1-0.2-0.1-0.3-0.1-0.3c0-0.1,0-0.2,0.1-0.3l1.9-2.1c0.1-0.1,0.2-0.2,0.4-0.2c0.1,0,0.2,0,0.3,0.1c0.8,0.6,1.4,1.1,2.1,1.3
		s1.3,0.5,2.2,0.5c0.7,0,1.3-0.2,1.8-0.5c0.5-0.4,0.8-0.9,0.8-1.4c0-0.6-0.3-1.1-0.8-1.3c-0.5-0.4-1.3-0.8-2.5-1.2
		c-1.2-0.5-2.2-0.9-3-1.3c-0.8-0.4-1.4-1.1-2-1.8c-0.6-0.8-0.9-1.7-0.9-2.9s0.3-2.2,0.9-3c0.6-0.9,1.3-1.5,2.3-1.9
		c1-0.5,2-0.7,3.1-0.7c2.3,0,4.3,0.9,6.1,2.6c0.1,0.1,0.2,0.2,0.2,0.3c0,0.1,0,0.2-0.1,0.3l-1.8,2.2c-0.1,0.2-0.2,0.2-0.4,0.2
		c-0.1,0-0.1,0-0.3-0.1c-0.8-0.5-1.3-0.9-1.9-1.2c-0.5-0.2-1.1-0.3-1.7-0.3s-1.2,0.2-1.5,0.5c-0.4,0.3-0.6,0.7-0.6,1.2
		C140.3,23.3,140.5,23.8,141,24.1z"/>
	<path class="st0" d="M159.1,23.2c0.1,0.1,0.1,0.2,0.1,0.3v2.6c0,0.1,0,0.2-0.1,0.3c-0.1,0.1-0.2,0.1-0.3,0.1h-1.9v9.9
		c0,0.1,0,0.2-0.1,0.3c-0.1,0.1-0.2,0.1-0.3,0.1h-3.4c-0.1,0-0.2,0-0.3-0.1c-0.1-0.1-0.1-0.2-0.1-0.3v-9.8h-1.9
		c-0.1,0-0.2,0-0.3-0.1c-0.1-0.1-0.1-0.2-0.1-0.3v-2.6c0-0.1,0-0.2,0.1-0.3c0.1-0.1,0.2-0.1,0.3-0.1h1.9v-3.8c0-0.1,0-0.2,0.1-0.3
		c0.1-0.1,0.2-0.1,0.3-0.1h3.4c0.1,0,0.2,0,0.3,0.1s0.1,0.2,0.1,0.3v3.7h1.9C158.9,23.1,159,23.2,159.1,23.2z"/>
	<path class="st0" d="M174.7,23.2c0.1,0.1,0.1,0.2,0.1,0.3v12.9c0,0.1,0,0.2-0.1,0.3c-0.1,0.1-0.2,0.1-0.3,0.1h-3.1
		c-0.3,0-0.4-0.1-0.4-0.4l-0.1-1.1c-1.1,1.2-2.4,1.8-3.9,1.8c-1.2,0-2.4-0.3-3.4-1c-1.1-0.7-1.8-1.5-2.4-2.6s-0.9-2.3-0.9-3.6
		c0-1.3,0.3-2.5,0.9-3.6c0.6-1.1,1.3-2,2.4-2.6c1.1-0.7,2.1-1,3.4-1c1.5,0,2.8,0.7,3.9,1.9l0.1-1.2c0-0.3,0.2-0.4,0.4-0.4h3.1
		C174.6,23.1,174.7,23.2,174.7,23.2z M169.7,32.4c0.6-0.7,0.9-1.4,0.9-2.4c0-1-0.3-1.7-0.9-2.4c-0.6-0.7-1.3-1-2.2-1
		c-0.9,0-1.6,0.3-2.2,1s-0.9,1.4-0.9,2.4c0,1,0.3,1.8,0.9,2.4c0.6,0.7,1.3,1,2.2,1S169.2,33.1,169.7,32.4z"/>
	<path class="st0" d="M197.5,23.6c0.8,0.5,1.4,1.2,1.8,2c0.5,0.9,0.7,1.9,0.7,3.2v7.7c0,0.1,0,0.2-0.1,0.3c-0.1,0.1-0.2,0.1-0.3,0.1
		h-3.4c-0.1,0-0.2,0-0.3-0.1c-0.1-0.1-0.1-0.2-0.1-0.3v-6.9c0-1.1-0.2-1.7-0.7-2.2c-0.5-0.5-1.1-0.7-1.6-0.7c-0.6,0-1.1,0.1-1.4,0.4
		c-0.4,0.3-0.8,0.6-1,1c-0.2,0.4-0.3,0.7-0.3,1.1v7.4c0,0.1,0,0.2-0.1,0.3c-0.1,0.1-0.2,0.1-0.3,0.1h-3.4c-0.1,0-0.2,0-0.3-0.1
		c-0.1-0.1-0.1-0.2-0.1-0.3v-6.9c0-1.1-0.2-1.7-0.7-2.2c-0.5-0.5-1.1-0.7-1.6-0.7c-0.6,0-1.1,0.2-1.4,0.5c-0.4,0.3-0.7,0.7-0.9,1.1
		c-0.2,0.4-0.3,0.8-0.3,1v7.2c0,0.1,0,0.2-0.1,0.3c-0.1,0.1-0.2,0.1-0.3,0.1h-3.4c-0.1,0-0.2,0-0.3-0.1c-0.1-0.1-0.1-0.2-0.1-0.3
		V23.6c0-0.1,0-0.2,0.1-0.3c0.1-0.1,0.2-0.1,0.3-0.1h3.3c0.3,0,0.4,0.1,0.4,0.4l0.1,1.7c0.5-0.8,1.1-1.3,1.7-1.8
		c0.7-0.5,1.5-0.7,2.5-0.7c0.9,0,1.7,0.2,2.4,0.7c0.8,0.4,1.3,1.1,1.7,1.8c0.5-0.8,1.2-1.3,2-1.8c0.8-0.5,1.7-0.7,2.8-0.7
		C195.8,22.8,196.7,23.1,197.5,23.6z"/>
	<path class="st0" d="M213.8,23.8c1.1,0.7,1.8,1.5,2.4,2.6s0.9,2.3,0.9,3.6s-0.3,2.5-0.9,3.6c-0.6,1.1-1.3,2-2.4,2.6
		c-1.1,0.7-2.1,1-3.4,1c-1.4,0-2.7-0.5-3.7-1.5v6c0,0.1,0,0.2-0.1,0.3c-0.1,0.1-0.2,0.1-0.3,0.1H203c-0.1,0-0.2,0-0.3-0.1
		c-0.1-0.1-0.1-0.2-0.1-0.3V23.5c0-0.1,0-0.2,0.1-0.3c0.1-0.1,0.2-0.1,0.3-0.1h3.1c0.3,0,0.4,0.1,0.4,0.4l0.1,1.2
		c1.1-1.2,2.4-1.9,3.9-1.9C211.6,22.8,212.8,23.1,213.8,23.8z M212.1,32.4c0.6-0.7,0.9-1.4,0.9-2.4c0-1-0.3-1.7-0.9-2.4
		c-0.6-0.7-1.3-1-2.2-1c-0.9,0-1.6,0.3-2.2,1s-0.9,1.4-0.9,2.4c0,1,0.3,1.7,0.9,2.4s1.3,1,2.2,1S211.5,33.1,212.1,32.4z"/>
</g>
<g>
	<g>
		<path class="st1" d="M45.6,54.3H16.4c-6.6,0-12-5.4-12-12V13.1c0-6.6,5.4-12,12-12h29.2c6.6,0,12,5.4,12,12v29.2
			C57.6,48.9,52.2,54.3,45.6,54.3z"/>
		<g>
			<path class="st2" d="M4.4,31.3v10.9c0,6.6,5.4,12,12,12h0.2"/>
		</g>
		<g>
			<path class="st3" d="M57.6,26.7V13.1c0-6.6-5.4-12-12-12h-0.7"/>
		</g>
	</g>
	<path class="st0" d="M39.4,13.1l-8.4-4.8l-1,0.6l-4.1,2.3l-4.4,2.5l-4.8,2.8L14.1,18v19.5l3,1.7L22,42l4.5,2.6l4.1,2.4l0.2,0.1
		l11-6.2l6-3.5V18L39.4,13.1z M45.1,30.1l-0.6-0.2L38,26.2l-6.9-3.9l-3-1.7l2.1-1.2l0.8-0.5c0.5,0.3,3.7,2.2,6.5,3.7
		c2.1,1.2,3.8,2.2,3.8,2.2l1.1,0.7v-4.2l-0.4-0.2c-0.2-0.1-3.4-1.9-6.2-3.6c-2.3-1.3-4.5-2.6-4.5-2.6L29,16.2l-5,2.9l-2.6,1.5
		l3.6,2.1l7,3.9l6.4,3.7l6,3.5l0.9,0.6V36c0,0-0.7,0.4-1.5,0.9c-2,1.2-5.5,3.2-8.4,4.8c-2.1,1.2-3.8,2.2-4.1,2.4l-2.7-1.5l-4.9-2.8
		l-5.2-3L17.4,36V25.5l2.3,1.2l6.4,3.6l6,3.4l2.4,1.3l-2.9,1.6c-0.1,0-0.2-0.1-0.3-0.2c-1-0.7-3.4-1.9-5.5-3.2
		c-2.7-1.5-5.4-3.1-5.4-3.1v3.8l4.6,2.6l5.2,3l1.3,0.8l6-3.5l3.6-2.1L38,33.3L31.9,30l-6.5-3.7l-7-3.8l-1.4-1v-1.7l0.8-0.4l5-2.9
		l4.7-2.7l3.6-2.1c0.4,0.2,0.9,0.6,1.9,1.1c0.8,0.5,2,1.2,3.6,2.1c1.8,1.1,3.7,2.2,5.4,3.1c1.4,0.8,2.5,1.4,3.1,1.8L45.1,30.1
		L45.1,30.1z"/>
</g>
<path class="st4" d="M45.6,54.3H16.4c-6.6,0-12-5.4-12-12V13.1c0-6.6,5.4-12,12-12h29.2c6.6,0,12,5.4,12,12v29.2
	C57.6,48.9,52.2,54.3,45.6,54.3z"/>
</svg>
