<?xml version="1.0" encoding="utf-8"?>
<!-- Generator: Adobe Illustrator 25.3.0, SVG Export Plug-In . SVG Version: 6.00 Build 0)  -->
<svg version="1.1" id="Layer_1" xmlns="http://www.w3.org/2000/svg" xmlns:xlink="http://www.w3.org/1999/xlink" x="0px" y="0px"
	 viewBox="0 0 800 800" style="enable-background:new 0 0 800 800;" xml:space="preserve">
<style type="text/css">
	.st0{fill:#00A1EF;}
	.st1{fill:#FFFFFF;}
	.st2{fill:#F71F74;}
	.st3{fill:#293041;}
</style>
<g>
	<path class="st0" d="M399.3,377.6c-13.8,0.2-25.5,8.7-32.9,20.1s-11.5,26-11.3,42c0.2,15.9,4.5,30.5,12.2,41.7s19.5,19.5,33.3,19.4
		c13.8-0.2,25.5-8.7,32.9-20.1s11.5-26,11.3-42c-0.2-15.9-4.5-30.5-12.2-41.7C425,385.8,413.1,377.4,399.3,377.6z M414.8,468.5
		c-4.6,7-9.6,9.9-14.4,9.9c-4.8,0.1-9.9-2.7-14.6-9.6s-8.2-17.4-8.3-29.3c-0.1-11.9,3.1-22.5,7.7-29.5s9.6-9.9,14.4-9.9
		c4.8-0.1,9.9,2.7,14.6,9.6s8.2,17.4,8.3,29.3C422.6,450.9,419.4,461.5,414.8,468.5z"/>
	<path class="st0" d="M584.1,227.8c-2.8-7.7-6.9-15-13.4-20.6s-15.3-8.8-25-8.8h-1l-4.8-19.3l0,0c-3.7-14.9-17.3-25.4-32.6-25.4
		H292.8c-15.3,0-28.8,10.4-32.5,25.3l-5,19.5h-0.8c-9.7,0-18.6,3.3-25,8.8c-6.5,5.6-10.6,12.9-13.4,20.6c-5.6,15.4-6.3,33.1-6.3,49
		c0,6.2,5,11.2,11.2,11.2h12.5l43.1,336.2c0,0.1,0,0.2,0,0.3c2.1,13.4,13.8,21.9,26.8,21.9h193.4c13,0,24.7-8.6,26.8-21.9
		c0-0.1,0-0.2,0-0.3L566.7,288h12.5c6.2,0,11.2-5,11.2-11.2C590.4,260.9,589.6,243.2,584.1,227.8z M281.9,184.4
		c1.3-5,5.7-8.4,10.9-8.4h214.3c5.2,0,9.6,3.4,10.9,8.5l3.5,13.9H278.4L281.9,184.4z M501.3,621c-0.1,0.5-2.5,3-4.7,3H303.3
		c-2.2,0-4.6-2.5-4.7-3l-16.9-131.4h40.1c2.5,5.8,4.8,11.7,8.5,17.1c16.6,24.3,42.2,38.9,69.9,38.9h0.8h0.1
		c28-0.3,53.7-15.5,69.9-40.4l0,0c3.2-4.9,5.2-10.3,7.5-15.6h39.7L501.3,621z M521.1,467.2h-48h-1.6c-4.7,0-8.9,3-10.5,7.4
		c-2.5,6.8-5.3,13.1-8.7,18.3c-12.7,19.5-31.2,30-51.3,30.3h-0.7c-19.9,0-38.4-10.1-51.4-29.1l0,0c-3.8-5.6-6.9-12.2-9.6-19.5
		c-1.6-4.4-5.8-7.4-10.5-7.3h-1.3H279l-7.2-56H327h1.2c4.7,0,8.9-3,10.5-7.4c10.6-29.5,33.4-48.3,60.4-48.6c0.1,0,0.2,0,0.3,0
		c0.2,0,0,0,0.3,0c27.1,0,50.4,18.8,61.3,48.6c1.6,4.4,5.8,7.3,10.5,7.4h1.1h55.6L521.1,467.2z M531.1,388.8h-52.9
		c-14.8-32.6-43.6-55.9-78.3-56c-0.5,0-1,0-1.5,0c-34.4,0.6-62.5,23.7-76.9,55.9h-52.6l-13-100.7H544L531.1,388.8z M245.1,265.6
		c-0.8-0.1-1.6-0.2-2.4-0.2c-0.4,0-0.9,0.1-1.3,0.2h-8c0.5-11,0.9-22.5,3.6-30.2c1.9-5.2,4.3-9,6.9-11.2c2.6-2.2,5.4-3.5,10.5-3.5
		h9.5c0.2,0,0.5,0,0.7,0c0.3,0,0.7,0,1,0h268.8c0.2,0,0.5,0,0.7,0s0.5,0,0.7,0h9.8c5.1,0,7.9,1.2,10.5,3.5c2.6,2.2,5,5.9,6.9,11.2
		c2.8,7.6,3.1,19.2,3.6,30.2H245.1z"/>
</g>
<path class="st1" d="M292.8,176h214.3c5.2,0,9.6,3.4,10.9,8.5l3.5,13.9H278.4l3.6-14C283.2,179.4,287.6,176,292.8,176z"/>
<path class="st1" d="M264.6,220.8c0.3,0,0.7,0,1,0h268.8c0.2,0,0.5,0,0.7,0s0.5,0,0.7,0h9.8c5.1,0,7.9,1.2,10.5,3.5
	c2.6,2.2,5,5.9,6.9,11.2c2.8,7.6,3.1,19.2,3.6,30.2H245.1c-0.8-0.1-1.6-0.2-2.4-0.2c-0.4,0-0.9,0.1-1.3,0.2h-8
	c0.5-11,0.9-22.5,3.6-30.2c1.9-5.2,4.3-9,6.9-11.2c2.6-2.2,5.4-3.5,10.5-3.5h9.5C264.1,220.8,264.4,220.8,264.6,220.8z"/>
<path class="st1" d="M255.9,288H544l-12.9,100.8h-52.9c-14.8-32.6-43.6-55.9-78.3-56c-0.5,0-1,0-1.5,0
	c-34.4,0.6-62.5,23.7-76.9,55.9h-52.6L255.9,288z"/>
<path class="st2" d="M399.4,355.2c0.2,0,0,0,0.3,0c27.1,0,50.4,18.8,61.3,48.6c1.6,4.4,5.8,7.3,10.5,7.4h1.1h55.6l-7.2,56h-48h-1.6
	c-4.7,0-8.9,3-10.5,7.4c-2.5,6.8-5.3,13.1-8.7,18.3c-12.7,19.5-31.2,30-51.3,30.3h-0.7c-19.9,0-38.4-10.1-51.4-29.1l0,0
	c-3.8-5.6-6.9-12.2-9.6-19.5c-1.6-4.4-5.8-7.4-10.5-7.3h-1.3h-48.5l-7.2-56H327h1.2c4.7,0,8.9-3,10.5-7.4
	c10.6-29.5,33.4-48.3,60.4-48.6C399.2,355.2,399.3,355.2,399.4,355.2z"/>
<path class="st1" d="M399.3,377.6c-13.8,0.2-25.5,8.7-32.9,20.1s-11.5,26-11.3,42c0.2,15.9,4.5,30.5,12.2,41.7s19.5,19.5,33.3,19.4
	c13.8-0.2,25.5-8.7,32.9-20.1s11.5-26,11.3-42s-4.5-30.5-12.2-41.7C425,385.8,413.1,377.4,399.3,377.6z"/>
<path class="st3" d="M399.6,400c4.8-0.1,9.9,2.7,14.6,9.6s8.2,17.4,8.3,29.3c0.1,11.9-3.1,22.5-7.7,29.5s-9.6,9.9-14.4,9.9
	c-4.8,0.1-9.9-2.7-14.6-9.6s-8.2-17.4-8.3-29.3s3.1-22.5,7.7-29.5C389.7,402.9,394.8,400.1,399.6,400z"/>
<path class="st1" d="M281.8,489.6h40.1c2.5,5.8,4.8,11.7,8.5,17.1c16.6,24.3,42.2,38.9,69.9,38.9h0.8h0.1
	c28-0.3,53.7-15.5,69.9-40.4l0,0c3.2-4.9,5.2-10.3,7.5-15.6h39.7l-17,131.4c-0.1,0.5-2.5,3-4.7,3H303.3c-2.2,0-4.6-2.5-4.7-3
	L281.8,489.6z"/>
</svg>
