<?xml version="1.0" encoding="utf-8"?>
<!-- Generator: Adobe Illustrator 25.3.0, SVG Export Plug-In . SVG Version: 6.00 Build 0)  -->
<svg version="1.1" id="_x32_" xmlns="http://www.w3.org/2000/svg" xmlns:xlink="http://www.w3.org/1999/xlink" x="0px" y="0px"
	 viewBox="0 0 800 800" style="enable-background:new 0 0 800 800;" xml:space="preserve">
<style type="text/css">
	.st0{fill:#F71F74;}
	.st1{fill:#293041;}
	.st2{fill:#00A1EF;}
</style>
<g>
	<path class="st0" d="M422.4,546.5H196.2c-13.9,0-25.1,9-25.1,20v0.6c0,11.1,11.2,20,25.1,20h226.2c13.9,0,25.1-9,25.1-20v-0.6
		C447.6,555.4,436.3,546.5,422.4,546.5z"/>
	<path class="st1" d="M227.1,430.5c-4,0-7.2,3.2-7.2,7.2c0,4,3.2,7.2,7.2,7.2c4,0,7.2-3.2,7.2-7.2
		C234.3,433.7,231.1,430.5,227.1,430.5z M281.2,430.5c-4,0-7.2,3.2-7.2,7.2c0,4,3.2,7.2,7.2,7.2c4,0,7.2-3.2,7.2-7.2
		C288.4,433.7,285.2,430.5,281.2,430.5z M256,408.8c-4,0-7.2,3.2-7.2,7.2s3.2,7.2,7.2,7.2c4,0,7.2-3.2,7.2-7.2
		C263.2,412,259.9,408.8,256,408.8z M295.7,407c0,4,3.2,7.2,7.2,7.2c4,0,7.2-3.2,7.2-7.2c0-4-3.2-7.2-7.2-7.2
		C298.9,399.8,295.7,403,295.7,407z M330,446.7c4,0,7.2-3.2,7.2-7.2c0-4-3.2-7.2-7.2-7.2c-4,0-7.2,3.2-7.2,7.2
		C322.7,443.5,326,446.7,330,446.7z M353.4,423.2c4,0,7.2-3.2,7.2-7.2c0-4-3.2-7.2-7.2-7.2c-4,0-7.2,3.2-7.2,7.2
		C346.2,419.9,349.4,423.2,353.4,423.2z M389.5,446.7c4,0,7.2-3.2,7.2-7.2c0-4-3.2-7.2-7.2-7.2c-4,0-7.2,3.2-7.2,7.2
		C382.3,443.5,385.6,446.7,389.5,446.7z"/>
	<path class="st0" d="M449.9,519.4c0.8-0.2,1.7-0.4,2.9-0.4c5,0,9-4,9-9c0-5-4-9-9-9c-3.2,0-6.2,0.5-8.9,1.4
		c-2.4,0.8-4.5,1.9-6.4,3.1c-3.3,2.2-5.7,4.7-7.7,7c-1.5,1.7-2.8,3.3-4,4.6c-1.8,2-3.3,3.4-4.6,4.2c-0.7,0.4-1.3,0.7-2.1,0.9
		c-0.8,0.2-1.7,0.4-2.9,0.4c-1.4,0-2.4-0.2-3.2-0.5c-0.7-0.2-1.4-0.6-2.1-1c-1.2-0.8-2.6-2.1-4.1-3.9c-1.2-1.3-2.5-2.9-3.9-4.6
		c-2.2-2.5-5-5.4-8.9-7.8c-1.9-1.2-4.1-2.2-6.5-2.9c-2.4-0.7-5-1-7.8-1c-3.2,0-6.2,0.5-8.9,1.4c-2.4,0.8-4.5,1.9-6.4,3.1
		c-3.3,2.2-5.7,4.7-7.7,7c-1.5,1.7-2.8,3.3-4,4.6c-1.8,2-3.3,3.4-4.6,4.2c-0.7,0.4-1.3,0.7-2.1,0.9c-0.8,0.2-1.7,0.4-2.9,0.4
		c-1.4,0-2.4-0.2-3.2-0.5c-0.7-0.2-1.4-0.6-2.1-1c-1.2-0.8-2.6-2.1-4.1-3.9c-1.2-1.3-2.5-2.9-3.9-4.6c-2.2-2.5-5-5.4-8.8-7.8
		c-1.9-1.2-4.1-2.2-6.5-2.9c-2.4-0.7-5-1-7.8-1c-3.2,0-6.2,0.5-8.9,1.4c-2.4,0.8-4.5,1.9-6.4,3.1c-3.3,2.2-5.7,4.7-7.7,7
		c-1.5,1.7-2.8,3.3-4,4.6c-1.8,2-3.3,3.4-4.6,4.2c-0.7,0.4-1.3,0.7-2.1,0.9c-0.8,0.2-1.7,0.4-2.9,0.4c-1.4,0-2.4-0.2-3.2-0.5
		c-0.7-0.2-1.4-0.6-2.1-1c-1.2-0.8-2.6-2.1-4.1-3.9c-1.2-1.3-2.5-2.9-3.9-4.6c-2.2-2.5-5-5.4-8.9-7.8c-1.9-1.2-4.1-2.2-6.5-2.9
		c-2.4-0.7-5-1-7.8-1c-3.2,0-6.2,0.5-8.9,1.4c-2.4,0.8-4.5,1.9-6.4,3.1c-3.3,2.2-5.7,4.7-7.7,7c-1.5,1.7-2.8,3.3-4,4.6
		c-1.8,2-3.3,3.4-4.6,4.2c-0.7,0.4-1.3,0.7-2.1,0.9c-0.8,0.2-1.7,0.4-2.9,0.4c-1.4,0-2.4-0.2-3.2-0.5c-0.7-0.2-1.4-0.6-2.1-1
		c-1.2-0.8-2.6-2.1-4.1-3.9c-1.2-1.3-2.5-2.9-4-4.6c-2.2-2.5-5-5.4-8.8-7.8c-1.9-1.2-4.1-2.2-6.5-2.9c-2.4-0.7-5-1-7.8-1
		c-5,0-9,4-9,9c0,5,4,9,9,9c1.4,0,2.4,0.2,3.2,0.5c0.7,0.3,1.4,0.6,2.1,1c1.2,0.8,2.6,2.1,4.1,3.9c1.2,1.3,2.5,2.9,3.9,4.6
		c2.2,2.5,5,5.4,8.8,7.8c1.9,1.2,4.1,2.2,6.5,2.8c2.4,0.7,5,1,7.8,1c3.2,0,6.2-0.5,8.9-1.4c2.4-0.8,4.5-1.9,6.4-3.1
		c3.3-2.2,5.7-4.7,7.7-7c1.5-1.7,2.8-3.3,4-4.7c1.8-2,3.3-3.4,4.6-4.2c0.7-0.4,1.3-0.7,2.1-0.9c0.8-0.2,1.7-0.4,2.9-0.4
		c1.4,0,2.4,0.2,3.2,0.5c0.7,0.3,1.4,0.6,2.1,1c1.2,0.8,2.6,2.1,4.1,3.9c1.2,1.3,2.5,2.9,3.9,4.6c2.2,2.5,5,5.4,8.9,7.8
		c1.9,1.2,4.1,2.2,6.5,2.8c2.4,0.7,5,1,7.8,1c3.2,0,6.2-0.5,8.9-1.4c2.4-0.8,4.5-1.9,6.4-3.1c3.3-2.2,5.7-4.7,7.7-7
		c1.5-1.7,2.8-3.3,4-4.7c1.8-2,3.3-3.4,4.6-4.2c0.7-0.4,1.3-0.7,2.1-0.9c0.8-0.2,1.7-0.4,2.9-0.4c1.4,0,2.4,0.2,3.2,0.5
		c0.7,0.3,1.4,0.6,2.1,1c1.2,0.8,2.6,2.1,4.1,3.9c1.2,1.3,2.5,2.9,3.9,4.6c2.2,2.5,5,5.4,8.9,7.8c1.9,1.2,4.1,2.2,6.5,2.8
		c2.4,0.7,5,1,7.8,1c3.2,0,6.2-0.5,8.9-1.4c2.4-0.8,4.5-1.9,6.4-3.1c3.3-2.2,5.7-4.7,7.7-7c1.5-1.7,2.8-3.3,4-4.7
		c1.8-2,3.3-3.4,4.6-4.2c0.7-0.4,1.3-0.7,2.1-0.9c0.8-0.2,1.7-0.4,2.9-0.4c1.4,0,2.4,0.2,3.2,0.5c0.7,0.3,1.4,0.6,2.1,1
		c1.2,0.8,2.6,2.1,4.1,3.9c1.2,1.3,2.5,2.9,4,4.6c2.2,2.5,5,5.4,8.8,7.8c1.9,1.2,4.1,2.2,6.5,2.8c2.4,0.7,5,1,7.8,1
		c3.2,0,6.2-0.5,8.9-1.4c2.4-0.8,4.5-1.9,6.4-3.1c3.3-2.2,5.7-4.7,7.7-7c1.5-1.7,2.8-3.3,4-4.7c1.8-2,3.3-3.4,4.6-4.2
		C448.4,519.9,449.1,519.6,449.9,519.4z"/>
	<path class="st2" d="M368.7,251.6l9.4,122.9c-21.4-8.1-45.5-12.8-71.1-12.8c-39.8,0-76.1,11.3-104,29.3
		c-13.9,9-25.8,19.7-34.8,31.7c-7,9.3-12.3,19.4-15.4,30h-0.6l-1.6,9.4c0,0.3-0.1,0.5-0.1,0.6l0,0c0,0.1-0.1,0.3-0.3,0.8
		c-0.1,0.4-0.3,1-0.4,1.6c-0.2,0.8-0.2,1.6-0.3,2.3c0,0.7-0.1,1.3-0.1,2.1c0,3.6,0.5,7.2,1.7,10.6c0.9,2.5,2.2,5,3.9,7.1
		c2.6,3.2,6,5.7,9.7,7.2c3.7,1.5,7.6,2.1,11.6,2.1h261.1c3.5,0,7-0.5,10.3-1.6c2.5-0.9,4.9-2.1,7.1-3.8c3.3-2.5,5.8-6,7.3-9.7
		c1.5-3.8,2.2-7.8,2.2-11.8c0-1,0-1.9-0.1-2.9c-0.1-0.8-0.2-1.7-0.5-2.5c-0.2-0.6-0.3-1-0.4-1.2l0,0c0-0.1-0.1-0.2-0.1-0.6v0
		c-2.4-14.1-8.6-27.4-17.6-39.4c-11-14.6-26.2-27.4-44.3-37.4l-8.5-111.3h235.7L603,609.9H458.1c-2.6-2.9-5.8-5.3-9.6-6.9
		c-3.9-1.7-8.2-2.4-12.6-2.4H178.3c-5.2,0-10.3,1.1-14.7,3.4c-3.3,1.7-6.1,4.1-8.4,6.8c-3.4,4.1-5.4,8.7-6.6,13.5
		c-1.2,4.8-1.7,9.6-1.7,14.6v2.7c0,10.5,4.3,20.2,11.2,27.1c6.9,6.9,16.6,11.2,27.1,11.2h243.7c10.5,0,20.2-4.3,27.1-11.2
		c6.9-6.9,11.2-16.6,11.2-27.1V639c0-2.2-0.1-4.4-0.3-6.5h156.9l29.3-380.9H368.7z M398.8,409.9c12,7.7,21.8,16.8,29,26.4
		c7.2,9.6,11.7,19.6,13.4,29.6v0c0.2,1.2,0.4,2.1,0.7,3c0,0.1,0.1,0.2,0.1,0.3c0,0.1,0,0.1,0,0.2c0,1.5-0.2,2.5-0.4,3
		c-0.1,0.4-0.3,0.5-0.3,0.6c-0.1,0.1-0.1,0.1-0.6,0.4c-0.5,0.2-1.5,0.5-3.1,0.5H176.5c-1.5,0-2.4-0.2-3-0.4
		c-0.4-0.1-0.6-0.2-0.6-0.3c-0.1-0.1-0.1-0.1-0.3-0.5c-0.2-0.4-0.4-1.2-0.4-2.4l0.7-4.3c1.7-9.9,6.2-20,13.4-29.6
		c10.8-14.4,27.6-27.5,48.5-36.9c20.9-9.4,45.7-15.2,72.3-15.2C342.6,384.2,374.9,394.4,398.8,409.9z M444.7,641.7
		c0,4.4-1.8,8.3-4.6,11.2c-2.9,2.9-6.8,4.6-11.2,4.6H185.2c-4.4,0-8.3-1.8-11.2-4.6c-2.9-2.9-4.6-6.8-4.6-11.2V639
		c0-3.1,0.3-5.9,0.8-8.1c0.4-1.7,0.9-3,1.4-4c0.4-0.8,0.8-1.3,1.1-1.7c0.6-0.6,1.1-1,1.8-1.3c0.8-0.3,1.9-0.6,3.8-0.6h257.5
		c2.2,0,3.4,0.4,4.2,0.8c0.6,0.3,1,0.7,1.5,1.3c0.7,0.9,1.6,2.4,2.2,4.8c0.6,2.3,1,5.4,1,8.9L444.7,641.7L444.7,641.7z"/>
	<polygon class="st0" points="572.6,251.6 589.5,173.8 648.6,139.5 637.3,120 569.6,159.4 549.5,251.6 	"/>
</g>
</svg>
