<?xml version="1.0" encoding="utf-8"?>
<!-- Generator: Adobe Illustrator 25.3.0, SVG Export Plug-In . SVG Version: 6.00 Build 0)  -->
<svg version="1.1" id="Layer_1" xmlns="http://www.w3.org/2000/svg" xmlns:xlink="http://www.w3.org/1999/xlink" x="0px" y="0px"
	 viewBox="0 0 800 800" style="enable-background:new 0 0 800 800;" xml:space="preserve">
<style type="text/css">
	.st0{fill:#00A1EF;}
	.st1{fill:#F71F74;}
	.st2{fill:#FFFFFF;}
	.st3{fill:#293041;}
</style>
<g>
	<g>
		<path class="st0" d="M462.6,205.1c-107.5,0-194.9,87.5-194.9,194.9s87.4,194.9,194.9,194.9S657.6,507.5,657.6,400
			S570.1,205.1,462.6,205.1z M462.6,577.4L462.6,577.4c-97.8,0-177.4-79.6-177.4-177.4s79.6-177.4,177.4-177.4
			S640.1,302.2,640.1,400S560.5,577.4,462.6,577.4z"/>
		<path class="st0" d="M595.3,333.2c-7.2-14.3-16.7-27.3-28-38.6c-0.5-0.6-1-1.1-1.6-1.6c-27.6-26.7-64.6-41.7-103.1-41.7
			c-7.1,0-14.2,0.5-21.3,1.5L441,253c-16.2,2.4-31.9,7.4-46.4,15c-0.5,0.2-1,0.5-1.5,0.8c-40.6,21.6-69,60.7-76.8,106
			c-0.1,0.3-0.1,0.6-0.2,0.9c-2.7,16.1-2.7,32.5,0,48.6c0,0.3,0.1,0.6,0.2,0.9c7.9,45.3,36.2,84.4,76.8,106c0.5,0.3,1,0.6,1.5,0.8
			c14.5,7.5,30.1,12.5,46.2,14.9h0.4c45.5,6.7,91.5-8.1,124.6-40.1c0.6-0.4,1.1-1,1.6-1.6c11.3-11.3,20.8-24.3,28-38.5
			c0.3-0.5,0.6-1.1,0.8-1.6c10-20.3,15.1-42.6,15.1-65.2c0-22.6-5.1-44.9-15.1-65.2C595.9,334.2,595.7,333.7,595.3,333.2z
			 M576.6,335.2l-79.4,57.7c-1.2,0.9-2.1,2-2.7,3.3c-1.3-11-8.3-20.6-18.3-25.3c1.4-0.2,2.8-0.7,3.9-1.6l79.4-57.7
			C566,318.9,571.8,326.8,576.6,335.2z M477.2,400C477.2,400,477.2,400,477.2,400c0,8.1-6.5,14.6-14.6,14.6
			c-8.1,0-14.6-6.5-14.6-14.6c0-8.1,6.5-14.6,14.6-14.6C470.7,385.4,477.2,391.9,477.2,400z M462.6,268.9
			c30.7,0,60.4,10.8,83.9,30.5l-67,48.7l-25.6-78.9C456.8,269,459.7,268.9,462.6,268.9z M436.3,271.6l30.3,93.4
			c0.4,1.3,1.2,2.6,2.2,3.6c-10.9-2.1-22.2,1.5-29.7,9.7c0.3-1.4,0.2-2.9-0.3-4.2l-30.3-93.4C417.4,276.6,426.7,273.5,436.3,271.6z
			 M392.9,289.1L392.9,289.1l25.6,78.9h-83C343.8,335.3,364.4,307,392.9,289.1z M331.5,400c0-4.9,0.3-9.7,0.8-14.6h98.2
			c1.4,0,2.8-0.4,4.1-1c-5.4,9.7-5.4,21.6,0,31.3c-1.3-0.7-2.7-1.1-4.1-1.1h-98.2C331.8,409.7,331.5,404.9,331.5,400z M392.9,510.9
			c-28.5-18-49-46.2-57.3-78.8h83L392.9,510.9z M436.3,528.4c-9.6-2-18.9-5-27.8-9h0l30.3-93.4c0.4-1.4,0.5-2.9,0.3-4.3
			c7.6,8.2,18.9,11.9,29.8,9.7c-1,1-1.8,2.2-2.3,3.6L436.3,528.4z M462.6,531.1c-2.9,0-5.8-0.1-8.7-0.3l25.6-78.9l67,48.7
			C523,520.3,493.3,531.1,462.6,531.1z M559.4,488.3l-79.4-57.7c-1.2-0.8-2.5-1.4-3.9-1.6c10.1-4.7,17-14.2,18.4-25.3
			c0.6,1.3,1.6,2.4,2.7,3.3l79.4,57.7C571.8,473.2,566,481.1,559.4,488.3z M584.3,448.7L517.2,400l67.1-48.7
			C596.9,382.5,596.9,417.5,584.3,448.7z"/>
	</g>
	<path class="st1" d="M173.9,306.7c0-4.8,3.9-8.8,8.8-8.8h93.8c4.8,0,8.8,3.9,8.8,8.8s-3.9,8.8-8.8,8.8h-93.8
		C177.8,315.4,173.9,311.5,173.9,306.7z"/>
	<path class="st1" d="M285.2,493.1c0,4.8-3.9,8.8-8.8,8.8h-93.8c-4.8,0-8.8-3.9-8.8-8.8c0-4.8,3.9-8.8,8.8-8.8h93.8
		C281.3,484.4,285.2,488.3,285.2,493.1L285.2,493.1L285.2,493.1z"/>
	<path class="st1" d="M245,408.8h-93.8c-4.8,0-8.8-3.9-8.8-8.8s3.9-8.8,8.8-8.8H245c4.8,0,8.8,3.9,8.8,8.8S249.9,408.8,245,408.8
		L245,408.8z"/>
	<path class="st2" d="M462.6,268.9c30.7,0,60.4,10.8,83.9,30.5l-67,48.7l-25.6-78.9C456.8,269,459.7,268.9,462.6,268.9z
		 M392.9,289.1L392.9,289.1l25.6,78.9h-83C343.8,335.3,364.4,307,392.9,289.1z M392.9,510.9c-28.5-18-49-46.2-57.3-78.8h83
		L392.9,510.9z M462.6,531.1c-2.9,0-5.8-0.1-8.7-0.3l25.6-78.9l67,48.7C523,520.3,493.3,531.1,462.6,531.1z M584.3,448.7L517.2,400
		l67.1-48.7C596.9,382.5,596.9,417.5,584.3,448.7z"/>
	<path class="st3" d="M576.6,335.2l-79.4,57.7c-1.2,0.9-2.1,2-2.7,3.3c-1.3-11-8.3-20.6-18.3-25.3c1.4-0.2,2.8-0.7,3.9-1.6
		l79.4-57.7C566,318.9,571.8,326.8,576.6,335.2z M436.3,271.6l30.3,93.4c0.4,1.3,1.2,2.6,2.2,3.6c-10.9-2.1-22.2,1.5-29.7,9.7
		c0.3-1.4,0.2-2.9-0.3-4.2l-30.3-93.4C417.4,276.6,426.7,273.5,436.3,271.6z M331.5,400c0-4.9,0.3-9.7,0.8-14.6h98.2
		c1.4,0,2.8-0.4,4.1-1c-5.4,9.7-5.4,21.6,0,31.3c-1.3-0.7-2.7-1.1-4.1-1.1h-98.2C331.8,409.7,331.5,404.9,331.5,400z M436.3,528.4
		c-9.6-2-18.9-5-27.8-9h0l30.3-93.4c0.4-1.4,0.5-2.9,0.3-4.3c7.6,8.2,18.9,11.9,29.8,9.7c-1,1-1.8,2.2-2.3,3.6L436.3,528.4z
		 M559.4,488.3l-79.4-57.7c-1.2-0.8-2.5-1.4-3.9-1.6c10.1-4.7,17-14.2,18.4-25.3c0.6,1.3,1.6,2.4,2.7,3.3l79.4,57.7
		C571.8,473.2,566,481.1,559.4,488.3z"/>
</g>
</svg>
