<?xml version="1.0" encoding="utf-8"?>
<!-- Generator: Adobe Illustrator 25.3.0, SVG Export Plug-In . SVG Version: 6.00 Build 0)  -->
<svg version="1.1" id="Layer_1" xmlns="http://www.w3.org/2000/svg" xmlns:xlink="http://www.w3.org/1999/xlink" x="0px" y="0px"
	 viewBox="0 0 800 800" style="enable-background:new 0 0 800 800;" xml:space="preserve">
<style type="text/css">
	.st0{fill:#F71F74;}
	.st1{fill:#293041;}
	.st2{fill:#00A1EF;}
</style>
<path class="st0" d="M445,290.4c-6.3,0-11.4,5-11.4,11.2c0,6.2,5.1,11.2,11.4,11.2c6.3,0,11.3-5,11.3-11.2
	C456.3,295.4,451.2,290.4,445,290.4z M400.2,335.2c-6.3,0-11.4,5-11.4,11.2c0,6.2,5.1,11.2,11.4,11.2c6.3,0,11.3-5,11.3-11.2
	C411.5,340.2,406.4,335.2,400.2,335.2z M355,380c-6.3,0-11.3,5-11.3,11.2c0,6.2,5.1,11.2,11.3,11.2c6.3,0,11.4-5,11.4-11.2
	C366.4,385,361.3,380,355,380z M400.2,424.8c-6.3,0-11.4,5-11.4,11.2s5.1,11.2,11.4,11.2c6.3,0,11.3-5,11.3-11.2
	S406.4,424.8,400.2,424.8z"/>
<path class="st1" d="M355,290.4c-6.3,0-11.3,5-11.3,11.2c0,6.2,5.1,11.2,11.3,11.2c6.3,0,11.4-5,11.4-11.2
	C366.4,295.4,361.3,290.4,355,290.4z M400.2,290.4c-6.3,0-11.4,5-11.4,11.2c0,6.2,5.1,11.2,11.4,11.2c6.3,0,11.3-5,11.3-11.2
	C411.5,295.4,406.4,290.4,400.2,290.4z M355,335.2c-6.3,0-11.3,5-11.3,11.2c0,6.2,5.1,11.2,11.3,11.2c6.3,0,11.4-5,11.4-11.2
	C366.4,340.2,361.3,335.2,355,335.2z M445,335.2c-6.3,0-11.4,5-11.4,11.2c0,6.2,5.1,11.2,11.4,11.2c6.3,0,11.3-5,11.3-11.2
	C456.3,340.2,451.2,335.2,445,335.2z M400.2,380c-6.3,0-11.4,5-11.4,11.2c0,6.2,5.1,11.2,11.4,11.2c6.3,0,11.3-5,11.3-11.2
	C411.5,385,406.4,380,400.2,380z M445,380c-6.3,0-11.4,5-11.4,11.2c0,6.2,5.1,11.2,11.4,11.2c6.3,0,11.3-5,11.3-11.2
	C456.3,385,451.2,380,445,380z M355,424.8c-6.3,0-11.3,5-11.3,11.2s5.1,11.2,11.3,11.2c6.3,0,11.4-5,11.4-11.2
	S361.3,424.8,355,424.8z M445,424.8c-6.3,0-11.4,5-11.4,11.2s5.1,11.2,11.4,11.2c6.3,0,11.3-5,11.3-11.2S451.2,424.8,445,424.8z"/>
<path class="st2" d="M377.6,178.4c-86.4,0-156.8,70.4-156.8,156.8v123.1c-37.2-5.7-65.1-10.9-65.1-10.9c-0.7-0.1-1.5-0.2-2.2-0.2
	c-3.2,0-6.3,1.5-8.4,3.9c-2.1,2.5-3,5.7-2.5,9c0,0,5.6,37.7,24.5,78.4c18.9,40.8,51.9,86.3,107.3,98.7c0.8,0.2,1.6,0.3,2.5,0.3
	h246.4c0.8,0,1.7-0.1,2.5-0.3c55.4-12.5,88.3-58,107.3-98.7c18.9-40.8,24.5-78.4,24.5-78.4c0.5-3.6-0.7-7.2-3.3-9.8
	c-2.6-2.5-6.3-3.6-9.8-3c0,0-56.8,10.4-116.1,17.9c-24.1,3-44,17.9-56.1,38C460,523.3,429,536.8,400,536.8
	c-29,0-59.9-13.4-72.1-33.4c-12.1-19.9-31.9-35-56-38c-9.9-1.2-19.3-2.6-28.7-3.9V335.2c0-60.2,39.4-111,93.9-128.2
	c-10.3,13.7-15.5,31.1-15.5,49.8c0,6.2,5,11.2,11.2,11.2h134.4c6.2,0,11.2-5,11.2-11.2c0-21.1-6.8-40.9-20.4-55.3
	c-13.4-14.3-33.2-22.8-56.9-23.1c-0.4,0-0.7,0-1.1,0H377.6z M400,200.8c19.1,0,32.5,6.3,41.7,16c6.9,7.3,10.6,17.5,12.5,28.8H345.8
	c1.8-11.5,5.6-21.7,12.5-29C367.4,206.9,380.8,200.8,400,200.8z M632,471.9c-3,13.3-8,32.6-19.4,57.2
	c-17.3,37.4-45.8,75.5-91.1,86.1H278.5c-45.3-10.6-73.8-48.7-91.1-86.1C176,504.5,171,485.2,168,472c12.6,2.4,48.2,9.2,101.2,15.7
	c16.4,2,30.5,12.3,39.6,27.3c18,29.7,55.7,44.2,91.2,44.2c35.5,0,73.3-14.6,91.4-44.4c9.1-15,23.1-25.2,39.7-27.3
	C582.7,481,619.1,474.2,632,471.9z"/>
</svg>
